# xmcd
#
# Track frame offsets:
#	183
#	13485
#	24860
#	39428
#	54798
#	68000
#	84550
#	96940
#	113413
#	128170
#	144835
#	161323
#
# Disc length: 2415 seconds
#
# Revision: 1
# Processed by: cddbd v1.4PL0 Copyright (c) Steve Scherf et al.
# Submitted via: EasyCDDAExtractor 5.0.7
#
DISCID=87096d0c
DTITLE=Lemon Grass - True Brit
DYEAR=1993
DGENRE=Country
TTITLE0=Changing Rules
TTITLE1=Truck Off The Road
TTITLE2=Mending Hearts
TTITLE3=Ouse River Blues
TTITLE4=40 and Bone Dry
TTITLE5=Easy Come Easy Go
TTITLE6=Let's Get The Hell Out Of Texaas
TTITLE7=I'll Wait For You
TTITLE8=Here's Your Hat What's Your Hurry?
TTITLE9=I Want Home
TTITLE10=Shakedown Man
TTITLE11=A Breath Is All It Takes ('93 Remix)
EXTD=
EXTT0=
EXTT1=
EXTT2=
EXTT3=
EXTT4=
EXTT5=
EXTT6=
EXTT7=
EXTT8=
EXTT9=
EXTT10=
EXTT11=
PLAYORDER=
